# xmcd
#
# Track frame offsets:
#	150
#	15304
#	35437
#	51261
#	71492
#
# Disc length: 1220 seconds
#
# Revision: 1
# Processed by: cddbd v1.5.2PL0 Copyright (c) Steve Scherf et al.
# Submitted via: audiograbber 1.81.02
#
DISCID=3704c205
DTITLE=Trio Fado - á espera do verão
DYEAR=1900
DGENRE=
TTITLE0=á espera do verão
TTITLE1=o meu primeiro amor
TTITLE2=marcha de recaida
TTITLE3=lágrima
TTITLE4=Valsa de Lazarim
EXTD=
EXTT0=
EXTT1=
EXTT2=
EXTT3=
EXTT4=
PLAYORDER=
